<?xml version="1.0" standalone="no"?>
<!DOCTYPE svg PUBLIC "-//W3C//DTD SVG 20010904//EN"
 "http://www.w3.org/TR/2001/REC-SVG-20010904/DTD/svg10.dtd">
<svg version="1.0" xmlns="http://www.w3.org/2000/svg"
 width="512.000000pt" height="512.000000pt" viewBox="0 0 512.000000 512.000000"
 preserveAspectRatio="xMidYMid meet">
<metadata>
Created by potrace 1.14, written by Peter Selinger 2001-2017
</metadata>
<g transform="translate(0.000000,512.000000) scale(0.100000,-0.100000)"
fill="#000000" stroke="none">
<path d="M231 5110 c-30 -13 -64 -47 -77 -80 -6 -14 -10 -94 -10 -182 1 -150
0 -157 -19 -156 -82 3 -111 -12 -121 -60 -9 -46 31 -84 86 -80 22 1 43 -1 46
-5 4 -4 8 -78 9 -164 1 -174 7 -195 59 -231 34 -23 112 -35 131 -20 60 47 74
62 80 85 l6 27 16 -33 c9 -18 32 -44 50 -58 65 -50 166 -26 204 47 21 40 30
137 14 144 -6 3 -6 5 0 5 6 1 9 38 8 96 -1 52 2 97 6 100 5 2 38 6 74 7 l66 2
83 -84 c68 -70 83 -91 86 -120 2 -34 9 -75 12 -75 2 0 8 -33 15 -84 3 -24 11
-54 17 -65 6 -12 10 -22 9 -24 -5 -4 30 -95 40 -106 5 -6 9 -16 9 -23 0 -23
120 -261 192 -382 37 -62 68 -116 68 -118 0 -3 8 -17 19 -31 28 -40 71 -115
78 -134 3 -10 9 -18 14 -18 5 0 9 -4 9 -10 0 -5 15 -33 34 -62 31 -49 57 -111
55 -132 0 -5 4 -12 9 -15 5 -3 34 -53 63 -111 72 -144 139 -260 150 -260 5 0
8 -3 7 -7 -2 -8 49 -93 61 -103 10 -8 40 -82 46 -115 3 -16 8 -41 12 -55 3
-14 7 -36 8 -50 2 -14 4 -25 5 -25 1 0 3 -11 5 -25 1 -14 8 -60 14 -103 7 -42
13 -97 14 -122 1 -25 4 -45 7 -45 3 0 5 -22 5 -50 0 -27 2 -50 5 -50 7 0 1
-320 -6 -340 -3 -8 -6 -17 -6 -20 -1 -3 -11 -33 -23 -67 -13 -34 -21 -64 -19
-66 3 -2 0 -17 -6 -32 -6 -15 -13 -44 -16 -64 -8 -47 -12 -66 -14 -66 -1 0 -3
-11 -5 -25 -1 -14 -6 -45 -10 -70 -5 -25 -8 -60 -8 -77 0 -18 -3 -33 -6 -33
-3 0 -7 -21 -7 -48 -1 -26 -4 -68 -6 -94 -3 -41 -1 -48 14 -48 10 0 18 -6 19
-12 0 -7 2 -42 4 -78 1 -36 4 -65 5 -65 1 0 3 -11 5 -25 8 -74 19 -136 31
-182 3 -13 7 -32 9 -43 9 -44 27 -112 40 -151 9 -27 11 -53 5 -77 -4 -21 -6
-37 -4 -37 2 0 -10 -30 -27 -67 -32 -72 -43 -139 -25 -150 13 -8 367 -13 395
-6 20 5 48 63 30 63 -5 0 -9 14 -9 30 0 17 -5 30 -11 30 -5 0 -7 5 -4 10 3 5
3 10 -2 10 -7 0 -26 44 -50 115 -5 17 -8 44 -7 60 5 46 12 90 14 90 1 0 3 18
5 40 1 22 3 40 5 40 4 0 13 137 13 215 0 84 -8 169 -18 178 -2 3 4 17 15 32
11 16 20 33 20 39 0 6 4 11 9 11 5 0 12 14 16 30 4 17 11 30 17 30 6 0 9 3 6
6 -3 3 3 31 14 62 11 31 21 64 23 72 2 8 8 33 14 55 6 22 13 58 17 80 3 22 8
47 9 55 2 8 4 23 4 33 1 15 12 17 81 17 73 0 80 -2 80 -20 0 -20 28 -173 36
-200 3 -8 6 -17 6 -20 0 -3 10 -30 20 -60 11 -30 21 -59 22 -65 4 -20 40 -90
57 -113 17 -22 17 -31 3 -97 -11 -47 -12 -218 -2 -238 6 -11 5 -17 -2 -17 -6
0 -8 -5 -4 -12 5 -7 9 -28 11 -48 3 -41 9 -89 19 -145 10 -59 7 -103 -10 -146
-9 -22 -13 -39 -9 -39 3 0 0 -8 -8 -17 -28 -35 -40 -65 -44 -108 -4 -35 -1
-46 13 -53 9 -5 104 -9 210 -8 148 1 195 4 201 14 12 20 7 62 -12 106 -45 103
-58 170 -43 226 4 14 9 32 11 40 2 8 4 15 5 15 1 0 4 13 6 30 3 16 9 32 12 35
4 3 7 12 7 20 -1 8 2 25 7 38 4 12 9 36 10 52 1 17 5 30 8 30 3 0 5 10 6 23 0
12 5 49 9 82 4 33 8 77 9 97 1 21 5 38 9 38 4 0 3 9 -3 19 -11 21 2 37 19 26
12 -7 33 29 24 39 -4 3 -8 32 -9 64 -1 31 -5 82 -9 112 -4 30 -8 66 -10 80 -2
14 -4 25 -5 25 -1 0 -3 14 -5 30 -4 32 -11 72 -21 120 -3 17 -6 38 -7 48 -1 9
-5 17 -10 17 -4 0 -6 4 -2 9 3 5 1 12 -5 16 -6 4 -8 10 -5 14 2 5 -7 42 -20
83 -22 69 -25 91 -25 264 0 104 2 202 5 219 4 16 8 50 11 75 5 46 9 75 19 145
3 22 8 54 10 70 2 17 4 30 5 30 1 0 3 17 6 39 2 21 8 44 14 51 5 6 7 15 4 18
-4 3 -3 14 1 24 5 10 9 23 10 28 3 25 72 143 95 165 17 16 70 109 148 260 36
69 71 138 79 153 8 15 16 33 18 40 9 36 18 57 25 57 4 0 11 11 14 25 4 17 11
23 19 19 7 -4 9 -4 5 1 -9 10 19 65 34 65 6 0 9 3 5 6 -3 4 9 31 28 60 19 30
35 56 35 59 0 3 15 28 33 57 19 29 37 60 40 68 4 8 15 27 25 42 50 77 173 316
178 348 2 8 7 16 13 18 5 2 8 9 5 16 -3 8 2 20 10 29 8 8 13 17 10 20 -3 3 1
16 10 29 8 12 17 34 20 48 3 14 9 41 14 60 5 19 9 38 10 43 1 4 2 8 3 10 1 3
7 42 13 92 10 75 17 88 102 173 61 62 88 82 93 73 5 -7 11 -9 14 -5 3 5 20 8
39 7 18 -1 43 -2 55 -2 21 -1 21 -4 20 -126 -1 -76 2 -127 8 -129 6 -3 5 -5
-1 -5 -11 -1 -10 -15 7 -80 6 -24 32 -52 64 -68 35 -19 104 -23 124 -8 39 29
81 79 82 98 0 17 4 13 13 -12 14 -40 69 -88 108 -95 40 -7 94 11 116 39 11 13
22 21 26 18 3 -3 6 -1 6 5 0 21 2 27 9 37 4 6 7 79 7 164 -1 94 3 155 9 157 6
1 30 5 53 7 51 5 69 20 77 62 5 22 1 36 -15 53 -20 22 -38 26 -92 23 -20 -1
-28 4 -29 16 0 10 -2 86 -3 168 -1 138 -3 153 -24 182 -70 98 -217 74 -251
-42 -7 -22 -9 -24 -10 -9 -1 27 -46 87 -74 97 -82 32 -154 9 -188 -60 -19 -38
-21 -63 -23 -196 l-1 -152 -80 -1 c-64 -1 -85 3 -104 17 -17 14 -28 16 -41 9
-13 -7 -20 -6 -24 6 -4 10 -16 15 -33 13 -16 -2 -37 2 -47 8 -21 12 -59 6 -50
-8 3 -5 -2 -9 -10 -9 -8 0 -18 5 -21 10 -11 18 -35 10 -45 -14 -5 -13 -13 -27
-19 -31 -6 -3 -9 0 -5 8 7 19 -22 47 -47 47 -11 0 -27 -12 -36 -28 l-16 -28
-1266 0 -1266 0 -17 28 c-22 36 -65 39 -77 6 -5 -13 -7 -27 -4 -33 2 -5 -2 -1
-11 10 -39 51 -46 54 -67 32 -11 -11 -16 -10 -30 4 -17 17 -59 16 -59 -2 0 -5
-14 -6 -31 -2 -24 4 -34 2 -41 -11 -6 -12 -14 -14 -25 -7 -12 6 -25 3 -42 -10
-21 -14 -41 -18 -101 -16 l-75 2 -2 158 c-2 142 -5 163 -24 197 -34 61 -111
85 -178 57 -33 -14 -81 -71 -81 -96 0 -9 -10 3 -21 27 -12 24 -32 50 -44 58
-28 19 -104 26 -134 14z m1119 -565 c0 7 161 10 463 10 296 0 465 -4 469 -10
5 -7 8 -7 8 0 0 11 67 12 75 1 3 -3 2 -4 -1 -2 -3 2 -16 -6 -30 -19 -14 -13
-34 -21 -48 -20 -38 5 -125 -30 -186 -74 -82 -59 -156 -156 -175 -231 -1 -3
-5 -16 -9 -30 -4 -14 -8 -44 -10 -68 -2 -23 -6 -45 -9 -49 -4 -3 -4 -11 0 -16
4 -6 8 -34 9 -61 3 -51 7 -79 18 -126 12 -50 18 -75 21 -95 2 -11 9 -42 15
-70 6 -27 13 -59 16 -70 12 -62 16 -75 25 -75 5 0 9 -6 9 -13 0 -7 16 -29 36
-48 20 -18 52 -59 71 -89 47 -71 161 -180 191 -180 6 0 12 -4 12 -10 0 -5 9
-10 21 -10 30 0 50 -25 46 -57 -3 -24 -8 -28 -33 -27 -26 1 -71 9 -84 15 -3 1
-9 3 -15 4 -5 2 -13 4 -17 5 -15 5 -28 8 -42 9 -7 0 -26 20 -42 44 -41 60 -44
63 -98 118 -26 27 -61 57 -77 66 -16 10 -29 20 -29 24 0 8 -38 52 -102 118
-26 27 -44 52 -41 55 4 3 -2 6 -12 6 -10 0 -16 2 -13 5 5 6 -21 33 -179 187
-60 58 -71 76 -93 140 -13 40 -27 78 -31 83 -3 6 -9 24 -13 40 -4 17 -13 44
-20 60 -8 17 -25 59 -40 95 -15 36 -55 119 -90 185 l-64 119 42 37 c27 25 43
33 48 25 4 -6 8 -6 8 -1z m1672 0 c5 -7 8 -7 8 0 0 7 132 9 380 8 l379 -2 40
-31 39 -32 -89 -174 c-49 -96 -86 -174 -83 -174 4 0 1 -7 -6 -15 -7 -8 -9 -15
-5 -15 4 0 3 -6 -2 -12 -6 -7 -30 -71 -54 -142 -48 -142 -31 -118 -220 -303
-46 -45 -113 -115 -149 -155 -107 -119 -145 -158 -154 -158 -15 0 -134 -138
-170 -197 -1 -1 -17 -5 -36 -8 -19 -4 -39 -8 -45 -9 -5 -1 -16 -5 -23 -10 -8
-5 -34 -10 -58 -11 -44 -3 -44 -3 -42 28 2 34 18 57 39 57 11 0 69 32 97 55
23 18 189 189 214 220 46 59 124 235 110 249 -3 3 -1 6 5 6 6 0 9 11 8 25 -2
14 0 25 3 25 4 0 7 10 8 23 1 12 5 56 9 97 12 114 8 241 -8 257 -4 3 -7 15 -7
25 0 10 -9 38 -20 60 -11 23 -20 48 -20 55 0 7 -4 13 -8 13 -5 0 -15 12 -23
28 -24 47 -199 201 -199 175 0 -4 -4 -3 -8 2 -4 6 -23 19 -42 29 l-35 17 33
-4 c17 -2 32 -1 32 2 0 10 95 6 102 -4z"/>
</g>
</svg>
